<svg width="22" height="28" viewBox="0 0 22 28" fill="none" xmlns="http://www.w3.org/2000/svg">
<path d="M20.4365 12.7461C19.8678 11.466 19.041 10.317 18.0078 9.37106L17.1553 8.58883C17.1263 8.563 17.0915 8.54467 17.0538 8.53545C17.0161 8.52622 16.9767 8.52639 16.9391 8.53594C16.9015 8.54549 16.8669 8.56411 16.8381 8.59019C16.8094 8.61627 16.7875 8.649 16.7744 8.68551L16.3936 9.77829C16.1562 10.4638 15.7197 11.164 15.1016 11.8525C15.0605 11.8964 15.0137 11.9082 14.9814 11.9111C14.9492 11.914 14.8994 11.9082 14.8555 11.8672C14.8145 11.832 14.7939 11.7793 14.7969 11.7265C14.9053 9.96286 14.3779 7.9736 13.2236 5.80856C12.2686 4.00973 10.9414 2.60641 9.2832 1.62789L8.07324 0.915981C7.91504 0.822231 7.71289 0.945278 7.72168 1.12985L7.78613 2.5361C7.83008 3.49704 7.71875 4.34664 7.45508 5.0527C7.13281 5.91696 6.66992 6.71969 6.07812 7.44039C5.66628 7.94126 5.19948 8.3943 4.68652 8.79098C3.45109 9.74068 2.44652 10.9576 1.74805 12.3506C1.05129 13.7557 0.68835 15.3027 0.6875 16.8711C0.6875 18.2539 0.959961 19.5927 1.49902 20.8554C2.01953 22.0712 2.77068 23.1745 3.71094 24.1045C4.66016 25.042 5.76172 25.7802 6.98926 26.2929C8.26074 26.8261 9.6084 27.0957 11 27.0957C12.3916 27.0957 13.7393 26.8261 15.0107 26.2959C16.2353 25.7862 17.3488 25.0428 18.2891 24.1074C19.2383 23.1699 19.9824 22.0742 20.501 20.8584C21.0392 19.5991 21.3153 18.2434 21.3125 16.874C21.3125 15.4443 21.0195 14.0556 20.4365 12.7461Z" fill="#5992FF"/>
</svg>
