<svg width="12" height="19" viewBox="0 0 12 19" fill="none" xmlns="http://www.w3.org/2000/svg">
<path d="M6.29171 8.35417C3.92712 7.73958 3.16671 7.10417 3.16671 6.11458C3.16671 4.97917 4.21879 4.1875 5.97921 4.1875C7.83337 4.1875 8.52087 5.07292 8.58337 6.375H10.8855C10.8125 4.58333 9.71879 2.9375 7.54171 2.40625V0.125H4.41671V2.375C2.39587 2.8125 0.770874 4.125 0.770874 6.13542C0.770874 8.54167 2.76046 9.73958 5.66671 10.4375C8.27087 11.0625 8.79171 11.9792 8.79171 12.9479C8.79171 13.6667 8.28129 14.8125 5.97921 14.8125C3.83337 14.8125 2.98962 13.8542 2.87504 12.625H0.583374C0.708374 14.9062 2.41671 16.1875 4.41671 16.6146V18.875H7.54171V16.6354C9.57296 16.25 11.1875 15.0729 11.1875 12.9375C11.1875 9.97917 8.65629 8.96875 6.29171 8.35417Z" fill="#5992FF"/>
</svg>
